<svg xmlns="http://www.w3.org/2000/svg" viewBox="0 0 1000 1800">
  <!-- Background -->
  <rect width="1000" height="1800" fill="#f0f0f0"/>
  
  <!-- Title -->
  <text x="500" y="40" font-family="Arial" font-size="26" text-anchor="middle" font-weight="bold">Tour Guide Scheduling Automation - Interface Wireframes</text>
  
  <!-- Admin Dashboard -->
  <rect x="50" y="70" width="900" height="500" fill="#ffffff" stroke="#000000" stroke-width="2"/>
  <text x="500" y="100" font-family="Arial" font-size="22" text-anchor="middle" font-weight="bold">Admin Dashboard</text>
  
  <!-- Admin Header -->
  <rect x="70" y="120" width="860" height="60" fill="#e0e0e0" stroke="#000000" stroke-width="1"/>
  <text x="140" y="155" font-family="Arial" font-size="16">Lafayette College Tour Guide Scheduling</text>
  <rect x="700" y="130" width="100" height="40" fill="#ffffff" stroke="#000000" stroke-width="1" rx="5" ry="5"/>
  <text x="750" y="155" font-family="Arial" font-size="14" text-anchor="middle">Settings</text>
  <rect x="810" y="130" width="100" height="40" fill="#4682B4" stroke="#000000" stroke-width="1" rx="5" ry="5"/>
  <text x="860" y="155" font-family="Arial" font-size="14" text-anchor="middle" fill="#ffffff">Log Out</text>
  
  <!-- Admin Navigation -->
  <rect x="70" y="190" width="200" height="360" fill="#e0e0e0" stroke="#000000" stroke-width="1"/>
  <text x="170" y="220" font-family="Arial" font-size="16" text-anchor="middle" font-weight="bold">Navigation</text>
  <rect x="80" y="240" width="180" height="40" fill="#4682B4" stroke="#000000" stroke-width="1"/>
  <text x="170" y="265" font-family="Arial" font-size="14" text-anchor="middle" fill="#ffffff">Scheduling Dashboard</text>
  <rect x="80" y="290" width="180" height="40" fill="#ffffff" stroke="#000000" stroke-width="1"/>
  <text x="170" y="315" font-family="Arial" font-size="14" text-anchor="middle">Tour Guide Management</text>
  <rect x="80" y="340" width="180" height="40" fill="#ffffff" stroke="#000000" stroke-width="1"/>
  <text x="170" y="365" font-family="Arial" font-size="14" text-anchor="middle">Import/Export Data</text>
  <rect x="80" y="390" width="180" height="40" fill="#ffffff" stroke="#000000" stroke-width="1"/>
  <text x="170" y="415" font-family="Arial" font-size="14" text-anchor="middle">Reports</text>
  <rect x="80" y="440" width="180" height="40" fill="#ffffff" stroke="#000000" stroke-width="1"/>
  <text x="170" y="465" font-family="Arial" font-size="14" text-anchor="middle">System Settings</text>
  
  <!-- Admin Main Content -->
  <rect x="280" y="190" width="650" height="360" fill="#ffffff" stroke="#000000" stroke-width="1"/>
  <text x="605" y="220" font-family="Arial" font-size="18" text-anchor="middle" font-weight="bold">Weekly Schedule</text>
  
  <!-- Date Filter -->
  <rect x="300" y="240" width="610" height="40" fill="#f8f8f8" stroke="#000000" stroke-width="1"/>
  <text x="340" y="265" font-family="Arial" font-size="14">Week of:</text>
  <rect x="400" y="245" width="150" height="30" fill="#ffffff" stroke="#000000" stroke-width="1"/>
  <text x="475" y="265" font-family="Arial" font-size="14" text-anchor="middle">March 10, 2025</text>
  <rect x="760" y="245" width="130" height="30" fill="#4682B4" stroke="#000000" stroke-width="1" rx="5" ry="5"/>
  <text x="825" y="265" font-family="Arial" font-size="14" text-anchor="middle" fill="#ffffff">Generate Schedule</text>
  
  <!-- Schedule Grid -->
  <rect x="300" y="290" width="610" height="240" fill="#ffffff" stroke="#000000" stroke-width="1"/>
  <!-- Time Column -->
  <rect x="300" y="290" width="80" height="30" fill="#e0e0e0" stroke="#000000" stroke-width="1"/>
  <text x="340" y="310" font-family="Arial" font-size="12" text-anchor="middle" font-weight="bold">Time</text>
  <!-- Day Columns -->
  <rect x="380" y="290" width="106" height="30" fill="#e0e0e0" stroke="#000000" stroke-width="1"/>
  <text x="433" y="310" font-family="Arial" font-size="12" text-anchor="middle" font-weight="bold">Monday</text>
  <rect x="486" y="290" width="106" height="30" fill="#e0e0e0" stroke="#000000" stroke-width="1"/>
  <text x="539" y="310" font-family="Arial" font-size="12" text-anchor="middle" font-weight="bold">Tuesday</text>
  <rect x="592" y="290" width="106" height="30" fill="#e0e0e0" stroke="#000000" stroke-width="1"/>
  <text x="645" y="310" font-family="Arial" font-size="12" text-anchor="middle" font-weight="bold">Wednesday</text>
  <rect x="698" y="290" width="106" height="30" fill="#e0e0e0" stroke="#000000" stroke-width="1"/>
  <text x="751" y="310" font-family="Arial" font-size="12" text-anchor="middle" font-weight="bold">Thursday</text>
  <rect x="804" y="290" width="106" height="30" fill="#e0e0e0" stroke="#000000" stroke-width="1"/>
  <text x="857" y="310" font-family="Arial" font-size="12" text-anchor="middle" font-weight="bold">Friday</text>
  
  <!-- Time Slots -->
  <rect x="300" y="320" width="80" height="30" fill="#f8f8f8" stroke="#000000" stroke-width="1"/>
  <text x="340" y="340" font-family="Arial" font-size="12" text-anchor="middle">10:00 AM</text>
  <rect x="300" y="350" width="80" height="30" fill="#f8f8f8" stroke="#000000" stroke-width="1"/>
  <text x="340" y="370" font-family="Arial" font-size="12" text-anchor="middle">11:00 AM</text>
  <rect x="300" y="380" width="80" height="30" fill="#f8f8f8" stroke="#000000" stroke-width="1"/>
  <text x="340" y="400" font-family="Arial" font-size="12" text-anchor="middle">1:00 PM</text>
  <rect x="300" y="410" width="80" height="30" fill="#f8f8f8" stroke="#000000" stroke-width="1"/>
  <text x="340" y="430" font-family="Arial" font-size="12" text-anchor="middle">2:00 PM</text>
  <rect x="300" y="440" width="80" height="30" fill="#f8f8f8" stroke="#000000" stroke-width="1"/>
  <text x="340" y="460" font-family="Arial" font-size="12" text-anchor="middle">3:00 PM</text>
  <rect x="300" y="470" width="80" height="30" fill="#f8f8f8" stroke="#000000" stroke-width="1"/>
  <text x="340" y="490" font-family="Arial" font-size="12" text-anchor="middle">4:00 PM</text>
  
  <!-- Example Assignments -->
  <rect x="380" y="320" width="106" height="30" fill="#ffffff" stroke="#000000" stroke-width="1"/>
  <text x="433" y="335" font-family="Arial" font-size="10" text-anchor="middle">2 Families</text>
  <text x="433" y="348" font-family="Arial" font-size="10" text-anchor="middle">Emily, Jackson</text>
  
  <rect x="380" y="380" width="106" height="30" fill="#ffffff" stroke="#000000" stroke-width="1"/>
  <text x="433" y="395" font-family="Arial" font-size="10" text-anchor="middle">1 Family</text>
  <text x="433" y="408" font-family="Arial" font-size="10" text-anchor="middle">Sophie</text>
  
  <rect x="486" y="350" width="106" height="30" fill="#e6f7ff" stroke="#000000" stroke-width="1"/>
  <text x="539" y="365" font-family="Arial" font-size="10" text-anchor="middle">3 Families</text>
  <text x="539" y="378" font-family="Arial" font-size="10" text-anchor="middle">Tyler, Alex, Maya</text>
  
  <rect x="592" y="410" width="106" height="30" fill="#e6f7ff" stroke="#000000" stroke-width="1"/>
  <text x="645" y="425" font-family="Arial" font-size="10" text-anchor="middle">Evaluation</text>
  <text x="645" y="438" font-family="Arial" font-size="10" text-anchor="middle">Jordan, Dr. Smith</text>
  
  <rect x="804" y="440" width="106" height="30" fill="#ffebcc" stroke="#000000" stroke-width="1"/>
  <text x="857" y="455" font-family="Arial" font-size="10" text-anchor="middle">Special Tour</text>
  <text x="857" y="468" font-family="Arial" font-size="10" text-anchor="middle">Avery, Cameron</text>
  
  <!-- Tour Guide Portal -->
  <rect x="50" y="620" width="900" height="500" fill="#ffffff" stroke="#000000" stroke-width="2"/>
  <text x="500" y="650" font-family="Arial" font-size="22" text-anchor="middle" font-weight="bold">Tour Guide Portal</text>
  
  <!-- Tour Guide Header -->
  <rect x="70" y="670" width="860" height="60" fill="#e0e0e0" stroke="#000000" stroke-width="1"/>
  <text x="140" y="705" font-family="Arial" font-size="16">Welcome, Emily!</text>
  <rect x="810" y="680" width="100" height="40" fill="#4682B4" stroke="#000000" stroke-width="1" rx="5" ry="5"/>
  <text x="860" y="705" font-family="Arial" font-size="14" text-anchor="middle" fill="#ffffff">Log Out</text>
  
  <!-- Tour Guide Navigation -->
  <rect x="70" y="740" width="200" height="360" fill="#e0e0e0" stroke="#000000" stroke-width="1"/>
  <text x="170" y="770" font-family="Arial" font-size="16" text-anchor="middle" font-weight="bold">Navigation</text>
  <rect x="80" y="790" width="180" height="40" fill="#4682B4" stroke="#000000" stroke-width="1"/>
  <text x="170" y="815" font-family="Arial" font-size="14" text-anchor="middle" fill="#ffffff">My Schedule</text>
  <rect x="80" y="840" width="180" height="40" fill="#ffffff" stroke="#000000" stroke-width="1"/>
  <text x="170" y="865" font-family="Arial" font-size="14" text-anchor="middle">Update Availability</text>
  <rect x="80" y="890" width="180" height="40" fill="#ffffff" stroke="#000000" stroke-width="1"/>
  <text x="170" y="915" font-family="Arial" font-size="14" text-anchor="middle">Submit Excuse</text>
  <rect x="80" y="940" width="180" height="40" fill="#ffffff" stroke="#000000" stroke-width="1"/>
  <text x="170" y="965" font-family="Arial" font-size="14" text-anchor="middle">My Progress</text>
  
  <!-- Tour Guide Main Content -->
  <rect x="280" y="740" width="650" height="360" fill="#ffffff" stroke="#000000" stroke-width="1"/>
  <text x="605" y="770" font-family="Arial" font-size="18" text-anchor="middle" font-weight="bold">My Upcoming Tours</text>
  
  <!-- Upcoming Tours List -->
  <rect x="300" y="790" width="610" height="290" fill="#ffffff" stroke="#000000" stroke-width="1"/>
  
  <!-- Tour Item 1 -->
  <rect x="310" y="800" width="590" height="80" fill="#f8f8f8" stroke="#000000" stroke-width="1" rx="5" ry="5"/>
  <text x="330" y="825" font-family="Arial" font-size="16" font-weight="bold">Monday, March 10 - 10:00 AM</text>
  <text x="330" y="850" font-family="Arial" font-size="14">Regular Tour - 2 Families (8 visitors)</text>
  <text x="330" y="870" font-family="Arial" font-size="14">Co-guide: Jackson</text>
  <rect x="770" y="825" width="110" height="30" fill="#4682B4" stroke="#000000" stroke-width="1" rx="5" ry="5"/>
  <text x="825" y="845" font-family="Arial" font-size="14" text-anchor="middle" fill="#ffffff">Check In</text>
  
  <!-- Tour Item 2 -->
  <rect x="310" y="890" width="590" height="80" fill="#f8f8f8" stroke="#000000" stroke-width="1" rx="5" ry="5"/>
  <text x="330" y="915" font-family="Arial" font-size="16" font-weight="bold">Wednesday, March 12 - 2:00 PM</text>
  <text x="330" y="940" font-family="Arial" font-size="14">Special Tour - Engineering Focus (12 visitors)</text>
  <text x="330" y="960" font-family="Arial" font-size="14">Co-guide: Jordan</text>
  <rect x="770" y="915" width="110" height="30" fill="#4682B4" stroke="#000000" stroke-width="1" rx="5" ry="5"/>
  <text x="825" y="935" font-family="Arial" font-size="14" text-anchor="middle" fill="#ffffff">Check In</text>
  
  <!-- Progress Summary -->
  <rect x="310" y="980" width="590" height="90" fill="#e6f7ff" stroke="#000000" stroke-width="1" rx="5" ry="5"/>
  <text x="330" y="1005" font-family="Arial" font-size="16" font-weight="bold">Tour Progress Summary</text>
  <text x="330" y="1030" font-family="Arial" font-size="14">Regular Tours: 15/20 completed</text>
  <text x="330" y="1055" font-family="Arial" font-size="14">Specialty Tours: 3/5 completed</text>
  <rect x="770" y="1015" width="110" height="30" fill="#4682B4" stroke="#000000" stroke-width="1" rx="5" ry="5"/>
  <text x="825" y="1035" font-family="Arial" font-size="14" text-anchor="middle" fill="#ffffff">View Details</text>
  
  <!-- Office Worker Interface -->
  <rect x="50" y="1170" width="900" height="500" fill="#ffffff" stroke="#000000" stroke-width="2"/>
  <text x="500" y="1200" font-family="Arial" font-size="22" text-anchor="middle" font-weight="bold">Office Worker Interface</text>
  
  <!-- Office Worker Header -->
  <rect x="70" y="1220" width="860" height="60" fill="#e0e0e0" stroke="#000000" stroke-width="1"/>
  <text x="170" y="1255" font-family="Arial" font-size="16">Today's Schedule - March 10, 2025</text>
  <rect x="810" y="1230" width="100" height="40" fill="#4682B4" stroke="#000000" stroke-width="1" rx="5" ry="5"/>
  <text x="860" y="1255" font-family="Arial" font-size="14" text-anchor="middle" fill="#ffffff">Log Out</text>
  
  <!-- Time Slots -->
  <rect x="70" y="1290" width="860" height="360" fill="#ffffff" stroke="#000000" stroke-width="1"/>
  
  <!-- 10:00 AM Slot -->
  <rect x="90" y="1310" width="820" height="160" fill="#f8f8f8" stroke="#000000" stroke-width="1" rx="5" ry="5"/>
  <text x="120" y="1340" font-family="Arial" font-size="18" font-weight="bold">10:00 AM Tour</text>
  
  <!-- Visitor Info -->
  <rect x="120" y="1360" width="310" height="90" fill="#ffffff" stroke="#000000" stroke-width="1"/>
  <text x="130" y="1380" font-family="Arial" font-size="14" font-weight="bold">Visitor Information</text>
  <text x="130" y="1405" font-family="Arial" font-size="14">Families: 2</text>
  <text x="130" y="1425" font-family="Arial" font-size="14">Total Visitors: 8</text>
  <text x="130" y="1445" font-family="Arial" font-size="14">Special Requests: Wheelchair Access</text>
  
  <!-- Guide Info -->
  <rect x="450" y="1360" width="310" height="90" fill="#ffffff" stroke="#000000" stroke-width="1"/>
  <text x="460" y="1380" font-family="Arial" font-size="14" font-weight="bold">Tour Guide Information</text>
  <text x="460" y="1405" font-family="Arial" font-size="14">Assigned Guides: Emily, Jackson</text>
  <text x="460" y="1425" font-family="Arial" font-size="14">Check-in Status: 1/2</text>
  
  <!-- Guide Check-in Buttons -->
  <rect x="580" y="1400" width="80" height="25" fill="#90ee90" stroke="#000000" stroke-width="1" rx="3" ry="3"/>
  <text x="620" y="1418" font-family="Arial" font-size="12" text-anchor="middle">Checked In</text>
  <rect x="670" y="1400" width="80" height="25" fill="#ff9999" stroke="#000000" stroke-width="1" rx="3" ry="3"/>
  <text x="710" y="1418" font-family="Arial" font-size="12" text-anchor="middle">No Show</text>
  
  <!-- Action Buttons -->
  <rect x="775" y="1360" width="120" height="35" fill="#4682B4" stroke="#000000" stroke-width="1" rx="5" ry="5"/>
  <text x="835" y="1382" font-family="Arial" font-size="14" text-anchor="middle" fill="#ffffff">Update Visitors</text>
  <rect x="775" y="1405" width="120" height="35" fill="#4682B4" stroke="#000000" stroke-width="1" rx="5" ry="5"/>
  <text x="835" y="1427" font-family="Arial" font-size="14" text-anchor="middle" fill="#ffffff">Complete Tour</text>
  
  <!-- 2:00 PM Slot -->
  <rect x="90" y="1480" width="820" height="90" fill="#f8f8f8" stroke="#000000" stroke-width="1" rx="5" ry="5"/>
  <text x="120" y="1510" font-family="Arial" font-size="18" font-weight="bold">2:00 PM Tour</text>
  <text x="120" y="1535" font-family="Arial" font-size="14">Families: 1  |  Visitors: 4  |  Guides: Sophie</text>
  
  <rect x="600" y="1500" width="140" height="35" fill="#4682B4" stroke="#000000" stroke-width="1" rx="5" ry="5"/>
  <text x="670" y="1522" font-family="Arial" font-size="14" text-anchor="middle" fill="#ffffff">View Details</text>
  <rect x="755" y="1500" width="140" height="35" fill="#4682B4" stroke="#000000" stroke-width="1" rx="5" ry="5"/>
  <text x="825" y="1522" font-family="Arial" font-size="14" text-anchor="middle" fill="#ffffff">Check In Guides</text>
  
  <!-- Legend -->
  <rect x="90" y="1580" width="820" height="50" fill="#ffffff" stroke="#000000" stroke-width="1"/>
  <text x="120" y="1612" font-family="Arial" font-size="14" font-weight="bold">Legend:</text>
  
  <rect x="200" y="1595" width="20" height="20" fill="#ffffff" stroke="#000000" stroke-width="1"/>
  <text x="230" y="1612" font-family="Arial" font-size="14">Regular Tour</text>
  
  <rect x="350" y="1595" width="20" height="20" fill="#e6f7ff" stroke="#000000" stroke-width="1"/>
  <text x="380" y="1612" font-family="Arial" font-size="14">Evaluation Tour</text>
  
  <rect x="500" y="1595" width="20" height="20" fill="#ffebcc" stroke="#000000" stroke-width="1"/>
  <text x="530" y="1612" font-family="Arial" font-size="14">Special Tour</text>
  
  <rect x="650" y="1595" width="20" height="20" fill="#90ee90" stroke="#000000" stroke-width="1"/>
  <text x="680" y="1612" font-family="Arial" font-size="14">Checked In</text>
  
  <rect x="780" y="1595" width="20" height="20" fill="#ff9999" stroke="#000000" stroke-width="1"/>
  <text x="810" y="1612" font-family="Arial" font-size="14">No Show</text>
  
  <!-- Footer -->
  <text x="500" y="1670" font-family="Arial" font-size="16" text-anchor="middle">Lafayette College Ambassadors of Lafayette</text>
  <text x="500" y="1695" font-family="Arial" font-size="14" text-anchor="middle">Tour Guide Scheduling Automation System</text>
</svg>